<?xml version="1.0" standalone="no"?>
<!DOCTYPE svg PUBLIC "-//W3C//DTD SVG 20010904//EN"
 "http://www.w3.org/TR/2001/REC-SVG-20010904/DTD/svg10.dtd">
<svg version="1.0" xmlns="http://www.w3.org/2000/svg"
 width="950.000000pt" height="630.000000pt" viewBox="0 0 950.000000 630.000000"
 preserveAspectRatio="xMidYMid meet">

<g transform="translate(0.000000,630.000000) scale(0.100000,-0.100000)"
fill="#000000" stroke="none">
<path d="M6791 5839 c-34 -94 -104 -223 -171 -314 -32 -44 -56 -82 -53 -85 2
-3 9 3 14 13 6 9 16 17 24 17 7 0 24 13 38 29 15 18 39 32 61 36 20 4 36 11
36 16 0 5 20 9 44 9 24 0 48 6 54 13 21 25 14 240 -10 296 l-14 35 -23 -65z"/>
<path d="M6499 5373 c-18 -21 -24 -29 -11 -19 12 11 22 16 22 12 0 -4 6 -1 13
6 11 9 20 38 12 38 0 0 -17 -17 -36 -37z"/>
<path d="M6433 5308 c-37 -46 -164 -158 -333 -295 -272 -219 -461 -425 -595
-648 -134 -222 -359 -728 -418 -940 -51 -184 -69 -296 -49 -309 4 -2 52 5 106
17 96 20 99 22 113 55 8 19 12 40 9 48 -3 7 -2 14 2 16 4 2 22 48 40 102 18
54 53 145 77 201 25 57 45 108 45 114 0 7 12 35 26 63 21 41 25 59 20 97 -22
163 -24 226 -10 255 8 16 14 37 14 47 0 9 3 19 8 21 11 5 57 100 54 114 -1 6
7 14 18 17 12 3 20 13 20 27 0 11 13 35 30 53 16 18 30 39 30 47 0 8 9 21 20
28 11 7 28 25 38 41 22 36 90 116 167 196 33 34 94 97 136 141 42 43 111 113
155 154 69 65 128 127 281 291 31 35 44 69 24 69 -5 0 -18 -10 -28 -22z"/>
<path d="M1735 3938 c-15 -118 47 -300 149 -435 177 -234 573 -480 942 -586
167 -48 183 -52 163 -35 -10 8 -19 36 -23 71 -5 50 -12 64 -41 92 -29 26 -35
40 -35 73 0 45 12 52 87 52 30 0 41 4 38 13 -7 17 6 34 30 39 11 2 -74 7 -190
10 -196 6 -219 8 -345 41 -264 67 -452 166 -583 306 -91 97 -139 191 -166 326
l-18 90 -8 -57z"/>
<path d="M5795 3240 l-50 -7 48 -1 c43 -2 47 -4 47 -27 0 -14 -4 -25 -10 -25
-5 0 -10 9 -10 20 0 11 -4 20 -10 20 -5 0 -10 -18 -10 -40 0 -33 -3 -40 -20
-40 -13 0 -20 -7 -20 -20 0 -16 7 -20 30 -20 23 0 30 4 30 20 0 11 5 20 10 20
6 0 10 9 10 20 0 11 5 20 10 20 6 0 10 12 10 26 0 21 4 24 20 19 11 -4 20 -2
20 4 0 6 -6 11 -14 11 -8 0 -20 2 -28 3 -7 2 -35 1 -63 -3z"/>
<path d="M5620 3205 c0 -8 -4 -15 -10 -15 -5 0 -10 -7 -10 -16 0 -29 35 -11
36 19 1 15 -3 27 -7 27 -5 0 -9 -7 -9 -15z"/>
<path d="M5503 3172 c-10 -6 -16 -72 -7 -72 19 0 54 26 49 38 -3 7 -5 20 -5
28 0 15 -18 18 -37 6z"/>
<path d="M5290 3059 c-102 -56 -212 -115 -245 -130 l-60 -29 80 5 c176 13 653
81 590 84 -21 1 -45 19 -45 33 0 4 18 8 40 8 22 0 40 -4 40 -9 0 -4 16 -11 36
-14 40 -7 85 5 65 17 -6 4 -18 3 -24 -3 -21 -16 -56 -3 -50 20 5 18 -1 19 -76
19 -51 0 -81 -4 -81 -11 0 -6 -14 -9 -32 -7 -26 2 -32 7 -30 21 2 10 -3 26
-10 34 -7 9 -11 26 -10 39 2 13 2 24 0 24 -2 0 -87 -46 -188 -101z"/>
<path d="M3800 3110 c0 -5 5 -10 10 -10 6 0 10 5 10 10 0 6 -4 10 -10 10 -5 0
-10 -4 -10 -10z"/>
<path d="M6031 3106 c-14 -8 -40 -12 -62 -9 -32 5 -38 2 -44 -17 -7 -24 10
-43 31 -36 7 3 43 12 80 21 81 20 103 35 54 35 -26 0 -31 3 -20 10 24 16 -10
12 -39 -4z"/>
<path d="M6158 3113 c7 -3 16 -2 19 1 4 3 -2 6 -13 5 -11 0 -14 -3 -6 -6z"/>
<path d="M4020 3066 c0 -9 5 -16 10 -16 6 0 10 4 10 9 0 6 -4 13 -10 16 -5 3
-10 -1 -10 -9z"/>
<path d="M4503 3003 c9 -2 23 -2 30 0 6 3 -1 5 -18 5 -16 0 -22 -2 -12 -5z"/>
<path d="M4560 3000 c0 -5 4 -10 9 -10 6 0 13 5 16 10 3 6 -1 10 -9 10 -9 0
-16 -4 -16 -10z"/>
<path d="M4640 2910 c0 -5 5 -10 10 -10 6 0 10 5 10 10 0 6 -4 10 -10 10 -5 0
-10 -4 -10 -10z"/>
<path d="M3315 2820 c-3 -5 -4 -10 -1 -10 2 0 12 -3 20 -6 12 -5 15 -2 10 10
-7 18 -20 21 -29 6z"/>
<path d="M4156 2815 c-3 -9 0 -15 9 -15 8 0 15 7 15 15 0 8 -4 15 -9 15 -5 0
-11 -7 -15 -15z"/>
<path d="M3380 2812 c0 -13 36 -22 93 -22 35 0 47 4 45 13 -5 14 -138 23 -138
9z"/>
<path d="M4043 2793 c9 -2 25 -2 35 0 9 3 1 5 -18 5 -19 0 -27 -2 -17 -5z"/>
<path d="M5753 2198 c-11 -24 -82 -188 -159 -366 -93 -217 -142 -319 -147
-310 -5 7 -61 150 -126 318 l-116 305 -103 3 c-56 1 -102 0 -102 -3 0 -10 422
-1059 429 -1068 4 -4 83 166 176 378 92 213 171 383 175 378 4 -4 81 -178 171
-385 90 -207 167 -374 171 -370 8 8 428 1052 428 1064 0 5 -46 7 -101 6 l-102
-3 -121 -317 c-67 -175 -123 -318 -126 -318 -3 0 -75 163 -160 361 -85 199
-158 363 -162 365 -4 3 -15 -15 -25 -38z"/>
<path d="M320 1693 c-150 -290 -277 -536 -282 -545 -8 -17 -1 -18 94 -18 l103
0 73 145 72 145 215 0 215 0 72 -145 73 -145 103 0 104 0 -85 163 c-46 89
-169 326 -272 527 -104 201 -194 373 -201 383 -10 15 -50 -56 -284 -510z m338
-111 c-38 -2 -98 -2 -133 0 l-64 3 65 135 66 135 68 -135 68 -135 -70 -3z"/>
<path d="M3740 1693 c-150 -290 -277 -536 -282 -545 -8 -17 -1 -18 94 -18
l103 0 73 145 72 145 215 0 215 0 72 -145 73 -145 103 0 104 0 -85 163 c-46
89 -169 326 -272 527 -104 201 -194 373 -201 383 -10 15 -50 -56 -284 -510z
m338 -111 c-38 -2 -98 -2 -133 0 l-64 3 65 135 66 135 68 -135 68 -135 -70 -3z"/>
<path d="M1242 1778 l3 -373 32 -67 c78 -164 235 -239 478 -225 55 3 123 12
150 21 123 38 214 123 257 241 20 57 22 80 26 418 l4 357 -96 0 -96 0 0 -287
c-1 -331 -9 -417 -45 -479 -59 -100 -231 -140 -380 -87 -48 17 -90 54 -118
108 -21 38 -22 56 -27 390 l-5 350 -93 3 -93 3 3 -373z"/>
<path d="M2447 2143 c-4 -3 -7 -233 -7 -510 l0 -503 95 0 95 0 0 200 c0 112 4
200 9 200 5 0 121 -90 257 -200 l248 -200 136 0 135 1 -25 20 c-14 12 -128
103 -254 202 l-229 181 75 12 c186 29 285 120 296 274 12 176 -85 288 -278
319 -71 12 -542 15 -553 4z m561 -176 c96 -52 96 -202 0 -254 -28 -15 -58 -18
-203 -18 l-170 0 -3 134 c-1 74 0 141 3 149 8 22 328 13 373 -11z"/>
<path d="M6727 2143 c-4 -3 -7 -233 -7 -510 l0 -503 400 0 400 0 0 80 0 80
-302 2 -303 3 -3 132 -3 133 203 2 203 3 3 77 3 78 -203 2 -203 3 -3 127 -3
128 303 2 303 3 0 80 0 80 -391 3 c-215 1 -393 -1 -397 -5z"/>
<path d="M7757 2143 c-4 -3 -7 -233 -7 -510 l0 -503 375 0 375 0 0 80 0 80
-277 2 -278 3 -3 428 -2 427 -88 0 c-49 0 -92 -3 -95 -7z"/>
<path d="M8697 2143 c-4 -3 -7 -233 -7 -510 l0 -503 375 0 375 0 0 80 0 80
-277 2 -278 3 -3 428 -2 427 -88 0 c-49 0 -92 -3 -95 -7z"/>
<path d="M5403 768 c-29 -57 -109 -212 -178 -345 l-126 -243 66 0 65 0 47 95
48 95 135 0 135 0 48 -95 47 -95 65 0 65 0 -110 212 c-61 117 -141 273 -178
346 -37 72 -69 132 -72 132 -3 0 -29 -46 -57 -102z m97 -208 c22 -44 40 -82
40 -85 0 -3 -36 -5 -80 -5 -46 0 -80 4 -80 10 0 10 72 160 77 160 2 0 21 -36
43 -80z"/>
<path d="M4641 822 c-103 -37 -146 -90 -145 -179 2 -115 57 -150 309 -197 113
-22 152 -69 106 -128 -54 -68 -244 -62 -364 12 l-48 30 3 -68 c3 -66 4 -67 38
-84 94 -45 308 -50 390 -8 89 44 120 89 120 173 0 109 -64 158 -248 189 -143
24 -176 40 -180 90 -2 29 2 40 23 56 55 44 197 38 297 -11 l49 -24 -3 65 -3
66 -45 14 c-25 7 -90 15 -145 18 -82 4 -110 1 -154 -14z"/>
<path d="M3742 593 c3 -235 3 -239 29 -288 31 -58 47 -74 109 -106 40 -21 58
-24 165 -24 116 0 122 1 175 31 65 37 105 94 120 173 5 29 10 143 10 252 l0
199 -59 0 -60 0 -3 -217 c-3 -244 -12 -280 -75 -316 -72 -41 -198 -30 -246 22
-41 44 -47 81 -47 302 l0 209 -61 0 -61 0 4 -237z"/>
</g>
</svg>
